<svg width="1440" height="494" viewBox="0 0 1440 494" fill="none" xmlns="http://www.w3.org/2000/svg">
<g opacity="0.3" filter="url(#filter0_f_7_19)">
<path d="M1390.24 481.093C1383.91 481.941 1377.46 482.663 1370.92 483.256C1340.23 486.043 1308.05 485.842 1277.87 482.674C1250.35 479.787 1223.54 474.676 1195.9 467.048C1173.26 460.8 1149.86 452.766 1124.37 442.483C1065.01 418.538 1012.02 390.092 960.771 362.583C931.934 347.103 902.11 331.094 871.488 316.065C805.093 283.485 701.245 238.647 566.529 225.503C416.613 210.877 233.654 235.329 51.3509 294.355C-111.468 347.074 -251.986 418.53 -387.881 487.635L-389.428 486.818C-253.408 417.651 -112.757 346.129 50.3496 293.318C91.6794 279.936 134.044 268.092 176.275 258.117C220.441 247.683 264.646 239.253 307.662 233.058C401.454 219.552 488.847 216.589 567.413 224.255C596.729 227.114 626.104 231.603 654.726 237.595C681.2 243.136 707.947 250.156 734.22 258.463C779.194 272.682 824.706 291.198 873.351 315.07C904.008 330.113 933.842 346.129 962.692 361.618C1013.9 389.103 1066.84 417.526 1126.1 441.429C1181.68 463.844 1228.77 476.182 1278.79 481.43C1342.7 488.136 1409.33 481.519 1461.6 463.273C1538.83 436.308 1571.54 390.227 1584.15 365.159C1596.6 340.435 1601.51 315.284 1606.27 290.961C1608.66 278.713 1611.14 266.049 1614.55 253.576C1634.69 179.851 1689.44 105.39 1772.88 38.2453C1842.86 -18.0584 1920.06 -55.6569 2002.35 -73.5101C2049.86 -83.8152 2103.05 -86.2887 2148.29 -80.298C2196.4 -73.9276 2230.45 -58.806 2244.15 -37.7228L2241.8 -37.1185C2212.13 -82.7571 2094.32 -92.1799 2002.91 -72.3507C1921.22 -54.6282 1844.5 -17.2404 1774.88 38.7739C1691.67 105.734 1637.07 179.989 1616.98 253.509C1613.59 265.956 1611.11 278.609 1608.72 290.842C1603.96 315.216 1599.03 340.418 1586.53 365.245C1576.54 385.085 1561.16 404.092 1542.04 420.213C1520.06 438.748 1493.35 453.575 1462.68 464.285C1440.67 471.968 1416.38 477.603 1390.24 481.097L1390.24 481.093Z" stroke="url(#paint0_linear_7_19)" stroke-width="4"/>
</g>
<defs>
<filter id="filter0_f_7_19" x="-397.775" y="-89.5068" width="2649.12" height="583.394" filterUnits="userSpaceOnUse" color-interpolation-filters="sRGB">
<feFlood flood-opacity="0" result="BackgroundImageFix"/>
<feBlend mode="normal" in="SourceGraphic" in2="BackgroundImageFix" result="shape"/>
<feGaussianBlur stdDeviation="2" result="effect1_foregroundBlur_7_19"/>
</filter>
<linearGradient id="paint0_linear_7_19" x1="-2007.44" y1="141.227" x2="440.229" y2="2714.98" gradientUnits="userSpaceOnUse">
<stop offset="0.41" stop-color="#04F06A"/>
<stop offset="0.68" stop-color="white"/>
<stop offset="1" stop-color="white"/>
</linearGradient>
</defs>
</svg>
